<?xml version="1.0" standalone="no"?>
<!DOCTYPE svg PUBLIC "-//W3C//DTD SVG 20010904//EN"
 "http://www.w3.org/TR/2001/REC-SVG-20010904/DTD/svg10.dtd">
<svg version="1.0" xmlns="http://www.w3.org/2000/svg"
 width="1730.000000pt" height="877.000000pt" viewBox="0 0 1730.000000 877.000000"
 preserveAspectRatio="xMidYMid meet">

<g transform="translate(0.000000,877.000000) scale(0.100000,-0.100000)"
fill="#000000" stroke="none">
<path d="M4185 5741 c-77 -19 -146 -81 -164 -148 -7 -24 -11 -201 -11 -476 0
-413 -1 -438 -17 -433 -10 2 -70 18 -134 35 -139 36 -315 97 -456 157 -117 50
-160 55 -199 21 -20 -18 -27 -33 -28 -64 -1 -45 19 -75 67 -100 25 -12 27 -18
22 -44 -12 -56 -7 -223 10 -294 35 -152 130 -290 248 -359 76 -45 186 -71 233
-56 98 33 81 168 -22 185 -135 22 -241 132 -273 283 -12 56 -15 192 -5 192 4
0 75 -22 158 -49 394 -128 731 -181 1149 -181 397 0 730 50 1106 166 77 24
117 32 124 25 16 -16 -9 -175 -38 -238 -51 -113 -122 -174 -226 -193 -70 -14
-104 -45 -104 -99 0 -74 54 -108 144 -91 185 33 340 187 397 395 11 39 18 105
19 189 l2 129 59 24 c32 13 69 35 82 49 31 35 30 93 -3 128 -23 25 -31 27 -73
23 -26 -2 -96 -25 -157 -51 -134 -58 -305 -116 -445 -151 -58 -15 -113 -29
-122 -31 -16 -5 -18 26 -20 464 l-3 470 -31 39 c-16 21 -52 49 -80 63 l-49 25
-565 2 c-311 1 -578 -2 -595 -6z m1133 -647 l2 -451 -87 -12 c-309 -41 -634
-42 -940 0 l-83 11 0 454 0 454 553 -2 552 -3 3 -451z"/>
<path d="M8530 5525 l0 -145 135 0 135 0 0 145 0 145 -135 0 -135 0 0 -145z"/>
<path d="M11325 5129 c-171 -25 -296 -88 -421 -214 -75 -75 -99 -107 -132
-176 -53 -109 -74 -200 -75 -324 -2 -191 63 -353 200 -496 145 -152 345 -227
577 -217 188 9 339 72 466 195 41 40 76 73 78 73 2 0 2 -75 0 -167 -4 -143 -8
-176 -26 -224 -45 -114 -163 -207 -315 -250 -107 -30 -314 -33 -422 -5 -114
29 -243 96 -312 163 l-60 58 -72 -54 c-39 -29 -71 -59 -71 -66 0 -17 104 -112
173 -158 124 -83 251 -122 436 -136 471 -35 836 147 916 456 13 48 15 173 15
795 l0 738 -115 0 -115 0 0 -141 0 -141 -88 83 c-139 132 -251 187 -422 208
-95 12 -130 12 -215 0z m338 -218 c143 -50 263 -143 325 -251 l32 -55 0 -203
c0 -199 0 -204 -26 -254 -52 -102 -187 -203 -326 -243 -74 -21 -224 -21 -302
0 -91 24 -175 74 -246 145 -186 186 -207 433 -58 656 79 118 201 201 328 223
78 14 205 5 273 -18z"/>
<path d="M7488 5110 c-153 -26 -332 -125 -422 -233 l-36 -42 0 133 0 132 -120
0 -120 0 0 -980 0 -980 135 0 135 0 0 418 0 419 88 -86 c151 -148 289 -204
512 -204 147 -1 217 14 335 73 188 93 316 255 366 467 31 130 24 286 -19 400
-93 251 -303 428 -570 479 -79 15 -207 17 -284 4z m207 -205 c203 -53 365
-215 404 -403 58 -276 -134 -558 -417 -613 -82 -15 -199 -6 -281 22 -87 30
-202 109 -262 181 -80 97 -79 91 -79 325 l0 208 30 51 c55 97 193 192 330 228
73 19 202 20 275 1z"/>
<path d="M9526 5103 c-262 -56 -467 -244 -547 -503 -20 -63 -24 -96 -23 -205
0 -113 4 -140 27 -210 38 -115 91 -199 182 -290 201 -202 509 -266 786 -165
109 40 184 87 258 164 l63 66 -4 -183 c-3 -169 -5 -186 -28 -232 -32 -66 -122
-155 -190 -188 -185 -90 -475 -91 -675 -2 -71 31 -175 104 -208 146 l-24 31
-76 -57 c-88 -66 -88 -65 -5 -140 176 -158 369 -224 653 -225 274 0 508 78
658 219 74 70 105 115 139 207 23 59 23 59 26 812 l3 752 -121 0 -120 0 0
-136 0 -136 -90 85 c-151 144 -313 208 -522 206 -51 0 -124 -7 -162 -16z m392
-208 c129 -41 242 -123 312 -227 l40 -60 0 -220 c0 -204 -1 -222 -21 -261 -51
-99 -203 -206 -344 -242 -334 -84 -684 174 -685 505 0 193 120 388 293 476
117 60 272 71 405 29z"/>
<path d="M8530 4410 l0 -700 135 0 135 0 0 700 0 700 -135 0 -135 0 0 -700z"/>
<path d="M12440 5097 c0 -2 153 -316 340 -697 327 -666 340 -695 329 -725 -7
-16 -37 -79 -67 -140 -105 -212 -130 -232 -269 -221 l-83 6 0 -99 c0 -68 4
-102 12 -107 7 -4 62 -8 123 -7 118 0 199 20 273 67 50 31 106 95 135 153 33
66 787 1758 787 1766 0 4 -58 7 -128 7 -124 0 -129 -1 -139 -22 -6 -13 -115
-270 -243 -573 -128 -302 -236 -553 -240 -558 -3 -4 -128 253 -277 570 l-272
578 -140 3 c-78 1 -141 1 -141 -1z"/>
<path d="M5275 4191 c-108 -28 -178 -103 -199 -212 l-6 -36 -58 13 c-82 20
-429 19 -505 -1 -185 -48 -316 -189 -347 -376 -41 -240 119 -477 361 -534 77
-18 390 -21 471 -4 91 19 177 67 243 134 34 33 67 75 74 93 7 18 19 32 25 32
7 0 29 -17 50 -39 94 -97 227 -111 309 -33 41 39 59 79 60 131 1 55 -26 114
-63 141 -61 43 -164 41 -214 -5 -28 -26 -35 -72 -14 -93 16 -16 60 -15 84 3
65 49 132 -43 68 -94 -52 -41 -88 -27 -186 68 l-58 55 0 72 c0 39 -7 93 -15
120 -15 51 -10 64 28 64 30 0 113 47 141 81 42 49 59 98 59 169 1 105 -57 196
-150 235 -44 18 -119 26 -158 16z m129 -130 c43 -29 66 -70 66 -121 0 -82 -59
-140 -144 -140 -44 0 -53 4 -92 44 -40 39 -44 48 -44 92 0 85 58 144 140 144
27 0 56 -8 74 -19z m-382 -314 c128 -63 187 -200 142 -330 -22 -64 -91 -139
-156 -168 -50 -23 -64 -24 -248 -24 -179 0 -199 2 -242 22 -179 82 -226 314
-91 449 72 73 120 83 358 81 175 -2 182 -3 237 -30z"/>
<path d="M5294 4016 c-39 -17 -60 -69 -45 -109 34 -89 171 -68 171 27 0 67
-65 109 -126 82z"/>
<path d="M4526 3588 c-11 -15 -16 -45 -16 -88 0 -75 18 -110 55 -110 37 0 55
35 55 110 0 75 -18 110 -55 110 -13 0 -31 -10 -39 -22z"/>
<path d="M4866 3594 c-12 -11 -16 -36 -16 -93 0 -66 3 -81 20 -96 16 -15 26
-17 48 -9 26 9 27 12 30 98 2 56 -1 93 -9 102 -15 19 -54 18 -73 -2z"/>
<path d="M4095 4005 c-50 -49 -24 -133 46 -150 62 -15 123 57 100 118 -22 58
-103 76 -146 32z"/>
</g>
</svg>
